<svg width="110" height="112" viewBox="0 0 110 112" fill="none" xmlns="http://www.w3.org/2000/svg">
<path d="M46.8278 111.992L45.2788 111.715L45.7763 108.915L43.097 111.322L41.2463 110.991L44.705 107.883L42.4124 102.848L44.2335 103.174L46.0767 107.225L46.7182 103.621L48.2672 103.898L46.8278 111.992ZM35.3336 106.812L33.8966 106.324L35.8372 100.564L37.2741 101.053L37.0673 101.665C37.4391 101.493 37.7851 101.398 38.1077 101.375C38.4303 101.354 38.7578 101.4 39.0878 101.512C39.8315 101.764 40.3758 102.27 40.723 103.031C41.0715 103.79 41.0998 104.598 40.8117 105.453C40.5137 106.341 40.0064 106.978 39.2898 107.368C38.5756 107.755 37.8442 107.823 37.0956 107.568C36.7508 107.451 36.4491 107.276 36.1906 107.045C35.932 106.813 35.7177 106.524 35.5466 106.179L35.3336 106.812ZM37.2458 106.144C37.6928 106.296 38.1163 106.265 38.5165 106.049C38.9179 105.834 39.2011 105.48 39.3686 104.986C39.536 104.489 39.5237 104.029 39.3316 103.606C39.1383 103.183 38.8243 102.897 38.3847 102.747C37.9329 102.594 37.5031 102.624 37.1005 102.839C36.6954 103.052 36.406 103.414 36.2337 103.926C36.065 104.427 36.0785 104.882 36.2718 105.296C36.4651 105.705 36.7902 105.99 37.2458 106.144ZM32.3957 101.679L31.9032 102.647L31.6347 102.51C31.4537 102.416 31.2752 102.377 31.0954 102.395C30.9169 102.41 30.779 102.512 30.6805 102.704C30.5967 102.87 30.5893 103.037 30.6546 103.205C30.7211 103.374 30.8442 103.504 31.0203 103.595C31.2407 103.708 31.5744 103.746 32.0201 103.702L32.0694 104.911C31.4143 105.044 30.8011 104.962 30.2298 104.667C29.7028 104.398 29.3383 104.038 29.1302 103.586C28.9246 103.135 28.9394 102.679 29.1758 102.215C29.4159 101.744 29.8616 101.493 30.5142 101.463C29.9663 100.868 29.8592 100.246 30.1904 99.5978C30.4354 99.1154 30.8282 98.8111 31.3675 98.6874C31.9068 98.5637 32.5077 98.6737 33.1739 99.0164C33.9053 99.3925 34.4039 99.9095 34.6699 100.565L33.4472 101.128C33.249 100.722 33.0027 100.446 32.7121 100.297C32.4806 100.178 32.2676 100.138 32.0743 100.179C31.881 100.219 31.7394 100.326 31.6507 100.502C31.5645 100.669 31.5547 100.848 31.6175 101.04C31.6803 101.231 31.8219 101.384 32.0448 101.498L32.3957 101.679ZM22.7016 99.886L21.4654 99.0028L24.9734 94.0472L26.2096 94.9305L25.8365 95.4575C26.2404 95.4005 26.5999 95.4092 26.9151 95.4822C27.2291 95.5552 27.5308 95.6925 27.814 95.8954C28.4543 96.3518 28.831 96.9926 28.9456 97.8227C29.0625 98.6502 28.8581 99.432 28.3373 100.168C27.7967 100.931 27.1281 101.395 26.3315 101.562C25.5361 101.727 24.817 101.581 24.1718 101.119C23.875 100.907 23.6374 100.653 23.4552 100.357C23.2729 100.06 23.1523 99.7215 23.087 99.3417L22.7016 99.886ZM24.7246 99.7995C25.1088 100.074 25.5225 100.167 25.9683 100.075C26.414 99.9862 26.7871 99.7277 27.0887 99.3034C27.3904 98.8754 27.5111 98.4325 27.4483 97.9711C27.3843 97.5109 27.1651 97.1448 26.7871 96.8751C26.398 96.598 25.9793 96.5015 25.5311 96.5906C25.0817 96.6784 24.7012 96.9419 24.3897 97.3823C24.0844 97.814 23.9662 98.2544 24.0339 98.7047C24.1016 99.1537 24.3318 99.5199 24.7246 99.7995ZM19.9459 97.9204L18.6678 96.6957L18.9387 94.667L16.9391 95.0393L15.6782 93.832L19.137 93.1875L19.6652 89.25L20.9433 90.4747L20.6158 92.9116L23.0193 92.4626L24.2789 93.6699L20.4188 94.3911L19.9459 97.9204ZM11.6174 87.3375L12.9706 87.8398C12.9373 88.1837 12.962 88.4744 13.0408 88.7143C13.1183 88.9531 13.2612 89.1918 13.4656 89.4281C13.8374 89.8598 14.2659 90.0974 14.7486 90.1419C15.235 90.1864 15.6758 90.0355 16.0747 89.6891C16.4626 89.3514 16.6682 88.9482 16.6928 88.4793C16.7174 88.008 16.5488 87.5651 16.1892 87.1483C15.7447 86.6336 15.2239 86.3838 14.6255 86.4011L14.4629 84.9525C15.5255 84.8919 16.4441 85.31 17.2198 86.2093C17.918 87.0184 18.2258 87.8596 18.1445 88.7317C18.0633 89.6025 17.7062 90.3151 17.0684 90.8705C16.6263 91.2552 16.124 91.4977 15.56 91.5991C14.9961 91.6993 14.4358 91.6437 13.8781 91.4284C13.3215 91.2144 12.8314 90.8618 12.4054 90.3683C12.0102 89.9106 11.7479 89.4219 11.6161 88.8999C11.4832 88.3791 11.4832 87.8583 11.6174 87.3375ZM9.78765 86.6757L6.7414 81.9007L7.95917 81.1165L9.04887 82.8236L12.9263 80.326L13.7438 81.61L9.86769 84.1064L11.0066 85.8902L9.78765 86.6757ZM4.0707 76.0966L3.44643 74.7074L8.96145 72.2024L9.58572 73.5903L8.99962 73.8575C9.37763 74.0121 9.68423 74.2014 9.9194 74.4241C10.1546 74.6467 10.3454 74.9177 10.4895 75.2368C10.8133 75.9555 10.817 76.699 10.4993 77.4734C10.1854 78.2478 9.6165 78.8205 8.79892 79.1916C7.94808 79.5776 7.13788 79.6407 6.36585 79.3809C5.59629 79.1199 5.04836 78.63 4.72329 77.9063C4.57307 77.5723 4.4955 77.2322 4.48688 76.8846C4.47703 76.5357 4.54352 76.1807 4.6765 75.8207L4.0707 76.0966ZM5.86225 77.0441C6.05557 77.4771 6.36709 77.7666 6.79804 77.9125C7.22777 78.061 7.68089 78.0276 8.15248 77.8123C8.629 77.5971 8.95529 77.2742 9.1326 76.8437C9.30745 76.4145 9.30129 75.9877 9.11044 75.5634C8.91466 75.1267 8.59944 74.8311 8.16726 74.6814C7.7363 74.5292 7.27456 74.5651 6.7845 74.7878C6.30552 75.0055 5.98292 75.3259 5.81546 75.7502C5.648 76.172 5.66401 76.605 5.86225 77.0441ZM4.38961 70.3122L3.76657 68.1078L1.67211 68.7065L1.2584 67.2406L7.08001 65.5793L7.49496 67.0451L5.08283 67.7329L5.70587 69.9373L8.118 69.2495L8.53172 70.7154L2.71011 72.3755L2.29516 70.9097L4.38961 70.3122ZM1.29041 58.7557L2.14001 59.9272C1.92207 60.1957 1.78293 60.4505 1.71521 60.693C1.64872 60.9366 1.63518 61.2137 1.67458 61.5242C1.74599 62.0908 1.97255 62.5275 2.34933 62.8343C2.72981 63.141 3.17923 63.261 3.70377 63.1942C4.2123 63.1287 4.60509 62.9085 4.88582 62.5312C5.16533 62.1527 5.26999 61.6912 5.19981 61.1445C5.11485 60.4678 4.8181 59.9705 4.3108 59.6501L4.97448 58.3549C5.89303 58.8955 6.42619 59.7553 6.57518 60.9354C6.71062 61.998 6.50253 62.8701 5.9546 63.5505C5.40667 64.2296 4.71467 64.6243 3.87862 64.7306C3.29867 64.8049 2.74704 64.7269 2.22128 64.4981C1.69551 64.2668 1.25963 63.908 0.914861 63.4194C0.570095 62.932 0.357079 62.3642 0.274581 61.7172C0.19824 61.116 0.249955 60.5631 0.426032 60.0546C0.60334 59.5475 0.891466 59.1145 1.29041 58.7557ZM0 56.6045L0.0381705 55.0805L2.30377 55.1386L0.0911167 52.9639L0.137906 51.1034L3.00931 53.9016L6.18978 51.2222L6.13929 53.2522L3.95988 55.0162L4.14212 55.1857L6.08881 55.2351L6.05064 56.7579L0 56.6045ZM0.98012 45.0865L1.24731 43.5859L7.20561 44.656L6.93841 46.1553L6.30429 46.0415C6.52962 46.3854 6.67491 46.7157 6.74387 47.0323C6.81282 47.349 6.81774 47.6818 6.75741 48.0257C6.6195 48.8025 6.20332 49.4186 5.50517 49.8763C4.81071 50.3352 4.01898 50.4849 3.13491 50.3266C2.21635 50.162 1.51328 49.7526 1.02322 49.0994C0.535618 48.4475 0.359542 47.7313 0.498679 46.9495C0.562707 46.5882 0.689532 46.2641 0.879153 45.9722C1.06754 45.6803 1.32119 45.4254 1.63517 45.204L0.98012 45.0865ZM1.92207 46.8864C1.83957 47.3527 1.93315 47.7696 2.2065 48.1345C2.47739 48.5019 2.86894 48.7308 3.37871 48.8223C3.89339 48.9139 4.34405 48.8347 4.73191 48.5799C5.11977 48.325 5.35372 47.97 5.43622 47.5111C5.51995 47.0398 5.42637 46.6179 5.15425 46.2481C4.88459 45.8782 4.48442 45.6456 3.95496 45.5504C3.43658 45.4576 2.98961 45.538 2.61283 45.7928C2.23728 46.0452 2.00703 46.4113 1.92207 46.8864ZM5.46946 41.4817C5.27492 41.77 5.00649 41.9741 4.66049 42.0966C4.31696 42.219 3.96481 42.2277 3.60527 42.125C3.17308 42.0013 2.82954 41.7712 2.57712 41.431C2.32101 41.0896 2.20034 40.7358 2.21143 40.3672C2.22251 39.9998 2.33209 39.453 2.53772 38.7231L2.95883 37.2362L8.78045 38.8963L8.36673 40.3622L6.26119 39.7623L6.18116 40.0468L7.89021 42.0495L7.39769 43.7925L5.46946 41.4817ZM5.16533 39.4493L3.76164 39.0485L3.61512 39.5631C3.45751 40.1235 3.61019 40.4711 4.07562 40.6034C4.54598 40.737 4.86982 40.4934 5.04713 39.8662L5.16533 39.4493ZM4.73314 28.0277L5.51625 26.6595L14.181 28.0129L13.3732 29.4256L11.5928 29.1361L9.92064 32.0605L11.0571 33.4744L10.2482 34.8871L4.73314 28.0277ZM7.01106 28.431L8.90111 30.8086L10.0044 28.88L7.01106 28.431ZM14.6686 19.481L14.4346 20.911C14.0911 20.9432 13.8128 21.0224 13.5924 21.1448C13.3732 21.2685 13.1676 21.4541 12.9755 21.7003C12.6246 22.1493 12.4731 22.6169 12.5212 23.1018C12.5692 23.5905 12.8007 23.9962 13.2156 24.324C13.6195 24.6419 14.0529 24.7681 14.5159 24.7038C14.9801 24.6382 15.3802 24.3883 15.7201 23.9554C16.14 23.4197 16.284 22.8581 16.1547 22.2693L17.5387 21.8351C17.7998 22.8717 17.5658 23.8577 16.8332 24.7929C16.1744 25.6353 15.411 26.0979 14.5442 26.1833C13.6774 26.2699 12.9127 26.0509 12.2503 25.5277C11.7898 25.164 11.4573 24.7149 11.2517 24.178C11.0473 23.6399 10.9943 23.0771 11.099 22.487C11.2024 21.8969 11.4548 21.3465 11.8563 20.8331C12.2293 20.3568 12.6566 20.0055 13.1405 19.7754C13.6244 19.5453 14.1342 19.4476 14.6686 19.481ZM20.383 13.8624L19.9472 15.2442C19.6049 15.2281 19.3167 15.2664 19.0828 15.3567C18.8476 15.447 18.6186 15.6004 18.392 15.8169C17.9808 16.2103 17.7653 16.6519 17.7444 17.1393C17.7222 17.6292 17.8933 18.0634 18.2578 18.4481C18.6124 18.8204 19.0237 19.0072 19.4903 19.0109C19.9595 19.0122 20.3917 18.8229 20.7894 18.4419C21.2807 17.9718 21.5023 17.4362 21.458 16.8362L22.89 16.6037C23.0008 17.6675 22.629 18.6089 21.772 19.4303C20.9999 20.17 20.1787 20.5189 19.3093 20.4793C18.4388 20.4397 17.7136 20.1144 17.1312 19.502C16.7273 19.0765 16.4626 18.5842 16.3345 18.0225C16.2077 17.4609 16.236 16.8956 16.4232 16.3266C16.6091 15.7588 16.9366 15.2491 17.407 14.7988C17.8441 14.3807 18.3169 14.0937 18.8279 13.9354C19.3401 13.777 19.8585 13.7535 20.383 13.8624ZM23.5537 9.81479C24.0191 9.48203 24.5399 9.28534 25.1162 9.22596C25.6937 9.16411 26.2354 9.25194 26.7489 9.48698C27.2636 9.72325 27.6835 10.0721 28.0122 10.536C28.3422 11.0023 28.5343 11.5207 28.5909 12.0909C28.6463 12.6637 28.554 13.2068 28.3164 13.7214C28.0775 14.236 27.7192 14.6652 27.2365 15.0104C26.5273 15.5163 25.7442 15.6969 24.8872 15.5509C24.0265 15.4037 23.3419 14.9695 22.8333 14.2496C22.2854 13.4764 22.113 12.6303 22.3162 11.7112C22.496 10.9071 22.9072 10.2762 23.5537 9.81479ZM24.3971 10.9677C24.0117 11.2436 23.7851 11.606 23.7199 12.0563C23.6546 12.5078 23.7679 12.942 24.0647 13.3614C24.3676 13.7906 24.7419 14.0479 25.1827 14.1333C25.6235 14.2187 26.0384 14.1234 26.4275 13.8463C26.8142 13.5692 27.0407 13.203 27.1097 12.7503C27.1762 12.2975 27.0592 11.8584 26.76 11.4353C26.4595 11.011 26.0889 10.7574 25.6469 10.6721C25.2085 10.5879 24.7911 10.6869 24.3971 10.9677ZM30.8959 12.4794L28.1378 7.06733L29.4873 6.37335L31.5806 10.4803L33.611 9.43626L31.5178 5.32929L32.8673 4.63408L34.9605 8.74228L36.3309 8.03717L37.4797 10.2898L36.1906 10.9529L35.7067 10.0053L30.8959 12.4794ZM38.6298 8.97856L37.8651 9.23833L35.9258 3.47868L37.3295 3.00119L38.4685 6.38449L40.2687 2.0029L40.9594 1.76786L42.8987 7.52751L41.495 8.00501L40.3795 4.69098L38.6298 8.97856ZM47.7722 0.506079L49.2658 0.237641L50.3297 6.22367L48.8361 6.49211L48.7228 5.85503C48.4802 6.18532 48.2229 6.43768 47.9508 6.6121C47.6786 6.78652 47.3696 6.90652 47.0273 6.96837C46.254 7.10692 45.5349 6.92755 44.8651 6.42902C44.1953 5.93297 43.7828 5.23899 43.6252 4.35079C43.4602 3.42796 43.5993 2.62265 44.0389 1.9361C44.4797 1.24954 45.088 0.836368 45.8662 0.696582C46.2245 0.632256 46.5717 0.639679 46.9103 0.716375C47.2477 0.794308 47.574 0.945227 47.8892 1.16418L47.7722 0.506079ZM46.4166 2.0165C45.9536 2.10062 45.5965 2.33318 45.3503 2.71667C45.1015 3.09891 45.0227 3.54672 45.1138 4.06009C45.2062 4.57594 45.4364 4.97302 45.8083 5.25136C46.1801 5.52846 46.5939 5.62618 47.0494 5.54454C47.5198 5.46042 47.8818 5.22662 48.1318 4.84314C48.3842 4.45965 48.463 4.00195 48.3694 3.47002C48.2758 2.94923 48.0456 2.55709 47.6774 2.28865C47.3117 2.02269 46.8906 1.93238 46.4166 2.0165ZM51.8774 6.0876L52.0313 0.00878906L53.5471 0.0471373L53.4313 4.66129L55.7105 4.71819L55.8274 0.105278L57.3432 0.143626L57.2274 4.75778L58.7666 4.79613L58.7025 7.32711L57.2545 7.29L57.2816 6.22491L51.8774 6.0876ZM60.3574 6.47232L59.5558 6.37088L60.3192 0.337841L61.7894 0.525871L61.3412 4.06875L64.8677 0.918012L65.5905 1.01079L64.8283 7.04259L63.3569 6.8558L63.7965 3.38467L60.3574 6.47232ZM67.9841 5.35527C67.6972 5.15982 67.4928 4.89014 67.3722 4.54377C67.2503 4.1974 67.2416 3.84361 67.3438 3.48239C67.4657 3.04819 67.696 2.70306 68.0346 2.44947C68.3744 2.19216 68.7266 2.07093 69.0923 2.08207C69.4592 2.0932 70.0035 2.2033 70.7287 2.40988L72.21 2.83295L70.5563 8.6829L69.0972 8.26602L69.6956 6.15069L69.4124 6.07028L67.419 7.78729L65.684 7.29247L67.9841 5.35527ZM70.0072 5.04972L70.4061 3.6395L69.8939 3.49353C69.3361 3.33395 68.9901 3.48734 68.8584 3.95618C68.7241 4.42749 68.9679 4.75283 69.5922 4.93097L70.0072 5.04972ZM79.9524 3.60115L81.2625 4.35698L80.0694 10.2836L84.576 6.27192L85.8824 7.02651L82.9925 14.8409L81.6898 14.0888L83.5084 9.14927L79.4291 12.7824L78.236 12.0934L79.3158 6.72715L75.9667 10.7822L74.648 10.0214L79.9524 3.60115ZM90.1661 17.5302L86.4808 14.3226C86.2518 14.6961 86.1693 15.0809 86.2309 15.4767C86.2937 15.8701 86.5054 16.2227 86.8613 16.5331C87.2898 16.9055 87.786 17.0725 88.3549 17.0366L88.9237 18.3318C88.3881 18.4666 87.8796 18.4691 87.4018 18.3442C86.9241 18.2155 86.455 17.952 85.9944 17.55C85.2778 16.9278 84.89 16.1942 84.8321 15.3481C84.773 14.5032 85.0389 13.7387 85.6263 13.0571C86.2296 12.3569 86.9561 11.9722 87.8045 11.9017C88.6541 11.8299 89.415 12.0885 90.0947 12.681C90.815 13.307 91.2029 14.0479 91.2558 14.9003C91.3088 15.7551 91.0108 16.5579 90.3582 17.3162L90.1661 17.5302ZM89.8004 15.6351C89.9408 15.3184 89.9679 14.9831 89.8805 14.6331C89.7918 14.2805 89.6009 13.9774 89.3042 13.7189C88.9841 13.4406 88.6282 13.2847 88.2317 13.2513C87.9867 13.229 87.6776 13.302 87.3083 13.4678L89.8004 15.6351ZM89.9457 20.9024L89.154 21.5914L88.265 20.5609L90.0307 19.0245L90.6266 19.7148L95.6036 18.1772L96.2451 18.9219L94.0287 23.6597L94.6382 24.3673L92.8713 25.9037L91.9232 24.804L92.7161 24.115L89.9457 20.9024ZM92.9698 22.4338L94.2516 19.9969L91.6375 20.8875L92.9698 22.4338ZM94.7133 26.6472L94.2774 25.9643L99.3726 22.6825L100.173 23.9356L97.1809 25.8629L101.846 26.5593L102.24 27.1766L97.1452 30.4585L96.3448 29.2041L99.2766 27.3164L94.7133 26.6472ZM97.9837 31.7586L103.499 29.2536L104.123 30.6416L99.9378 32.5429L100.877 34.631L105.062 32.7297L105.688 34.1189L101.503 36.019L102.137 37.4292L99.8417 38.472L99.2445 37.1459L100.21 36.7068L97.9837 31.7586ZM101.305 39.6101L101.084 38.8295L106.906 37.1682L107.311 38.6007L103.891 39.5767L108.159 41.5993L108.359 42.3044L102.536 43.9657L102.131 42.5332L105.481 41.577L101.305 39.6101ZM106.976 46.4806L107.263 48.7543L109.423 48.4784L109.613 49.9901L103.61 50.7558L103.419 49.2442L105.906 48.9275L105.619 46.6538L103.131 46.9717L102.94 45.4601L108.945 44.6943L109.136 46.206L106.976 46.4806ZM108.69 58.1236L107.963 56.8717C108.206 56.6268 108.371 56.3881 108.462 56.153C108.553 55.918 108.594 55.6434 108.586 55.3304C108.572 54.7589 108.391 54.3012 108.046 53.9585C107.699 53.6146 107.263 53.4501 106.736 53.4637C106.222 53.4761 105.809 53.6567 105.493 54.003C105.177 54.3507 105.027 54.7997 105.04 55.3514C105.058 56.033 105.303 56.5575 105.775 56.9274L104.985 58.1496C104.125 57.5175 103.681 56.6082 103.651 55.4195C103.624 54.3482 103.919 53.502 104.532 52.8811C105.145 52.2601 105.871 51.9384 106.715 51.9162C107.3 51.9013 107.842 52.0349 108.341 52.3157C108.84 52.6002 109.238 52.9998 109.532 53.5218C109.826 54.0414 109.982 54.6278 109.999 55.2809C110.014 55.8858 109.908 56.4314 109.68 56.9187C109.453 57.4049 109.123 57.8069 108.69 58.1236ZM109.628 60.3874L109.437 61.8991L107.189 61.6121L109.171 64.0008L108.939 65.8477L106.363 62.7724L102.93 65.1154L103.185 63.1015L105.529 61.5663L105.364 61.3795L103.433 61.1333L103.624 59.6217L109.628 60.3874ZM107.95 70.1761C107.793 70.729 107.51 71.2103 107.098 71.6185C106.687 72.0292 106.208 72.3013 105.661 72.4411C105.112 72.5797 104.567 72.5722 104.023 72.4164C103.474 72.2605 103.001 71.976 102.602 71.5665C102.203 71.1546 101.936 70.6734 101.802 70.1229C101.668 69.5712 101.68 69.0108 101.841 68.4393C102.079 67.5981 102.579 66.9647 103.337 66.5392C104.1 66.1137 104.905 66.0221 105.751 66.2633C106.658 66.5231 107.321 67.0748 107.736 67.9197C108.095 68.6595 108.167 69.4104 107.95 70.1761ZM106.573 69.8074C106.703 69.3497 106.653 68.9254 106.424 68.5321C106.194 68.1387 105.834 67.8715 105.343 67.7317C104.84 67.587 104.388 67.6216 103.99 67.8319C103.594 68.0422 103.329 68.3774 103.198 68.8388C103.068 69.2978 103.119 69.7246 103.348 70.1217C103.579 70.5163 103.943 70.7859 104.439 70.927C104.938 71.0692 105.385 71.0346 105.783 70.8243C106.178 70.614 106.442 70.2738 106.573 69.8074ZM106.226 74.9511L104.929 78.2552L103.584 77.722L104.324 75.8355L100.039 74.1383L100.595 72.7207L106.226 74.9511ZM102.814 82.5502C102.53 83.0487 102.137 83.4458 101.639 83.7415C101.141 84.0396 100.61 84.1868 100.046 84.1893C99.4797 84.1905 98.9539 84.0495 98.4627 83.7662C97.9689 83.4804 97.5786 83.0908 97.2905 82.5947C97.0023 82.0987 96.8595 81.5667 96.862 81.0002C96.8656 80.4311 97.0122 79.8906 97.3077 79.3759C97.7411 78.6176 98.3777 78.1253 99.2174 77.8977C100.06 77.6701 100.862 77.7777 101.625 78.2181C102.443 78.6906 102.952 79.3871 103.15 80.3087C103.32 81.114 103.209 81.8599 102.814 82.5502ZM101.568 81.8562C101.803 81.4443 101.859 81.02 101.731 80.5833C101.602 80.1454 101.318 79.799 100.876 79.5429C100.422 79.2807 99.9747 79.2028 99.5376 79.3104C99.1017 79.4168 98.7643 79.6778 98.5267 80.0934C98.2903 80.5078 98.2361 80.9346 98.3629 81.375C98.491 81.8154 98.7791 82.1642 99.2273 82.4228C99.6767 82.6825 100.119 82.7568 100.555 82.6504C100.989 82.5428 101.327 82.2768 101.568 81.8562ZM99.79 90.7307L96.8262 94.1684L95.6627 93.1566L96.6403 92.0222L91.6178 87.6505L92.6558 86.4481L97.6783 90.8186L98.6264 89.7176L99.79 90.7307ZM94.6924 93.3669L93.5645 94.4468L89.814 92.7793L91.1721 96.739L90.0467 97.8165L87.0854 89.1819L88.2108 88.1045L89.154 90.8903L94.6924 93.3669ZM87.3944 99.7351L87.009 99.1908C86.9426 99.5706 86.8194 99.912 86.6372 100.208C86.455 100.505 86.2161 100.759 85.9206 100.971C85.2778 101.43 84.5575 101.577 83.7621 101.411C82.9654 101.246 82.2993 100.78 81.7588 100.017C81.2379 99.2811 81.0335 98.4993 81.1505 97.6717C81.2638 96.8429 81.6393 96.2021 82.2784 95.7457C82.5616 95.5428 82.8632 95.4055 83.1785 95.3325C83.4949 95.2583 83.8569 95.2509 84.262 95.3102L82.6047 92.9685L83.8409 92.0865L88.6294 98.8519L87.3944 99.7351ZM85.3763 99.6448C85.7642 99.3677 85.9944 99.0028 86.0609 98.5537C86.1287 98.1022 86.0105 97.6618 85.7063 97.2314C85.3948 96.791 85.0143 96.5263 84.5649 96.4397C84.1167 96.3506 83.6968 96.4458 83.309 96.7242C82.931 96.9939 82.7106 97.3588 82.6465 97.8189C82.585 98.2816 82.7044 98.7245 83.0073 99.1525C83.3077 99.5768 83.6821 99.8341 84.1265 99.9244C84.5723 100.016 84.9885 99.9219 85.3763 99.6448ZM78.135 98.4511L78.8541 98.0812L81.6135 103.493L80.2935 104.172L78.6731 100.993L77.5329 105.593L76.8828 105.926L74.1234 100.514L75.4434 99.8353L77.0305 102.95L78.135 98.4511ZM72.5326 103.799L72.8798 104.829L72.5954 104.926C72.4033 104.991 72.2506 105.093 72.1373 105.235C72.024 105.374 72.0019 105.544 72.0708 105.75C72.1299 105.924 72.2432 106.046 72.4094 106.117C72.5769 106.188 72.7542 106.189 72.9414 106.126C73.1778 106.045 73.4363 105.831 73.7159 105.48L74.6135 106.286C74.2515 106.851 73.7651 107.237 73.1568 107.443C72.5966 107.634 72.0856 107.646 71.6177 107.48C71.1523 107.314 70.8383 106.985 70.6721 106.493C70.5034 105.992 70.6351 105.496 71.0673 105.004C70.2608 104.984 69.7424 104.628 69.5097 103.937C69.3373 103.424 69.3927 102.929 69.6809 102.455C69.9678 101.98 70.4664 101.624 71.1757 101.383C71.9526 101.118 72.6692 101.118 73.3231 101.384L72.8736 102.657C72.4452 102.518 72.077 102.502 71.7667 102.608C71.5204 102.692 71.3444 102.818 71.2372 102.986C71.1313 103.153 71.1104 103.329 71.1732 103.516C71.2335 103.694 71.3542 103.826 71.5352 103.914C71.715 104.002 71.9231 104.007 72.1583 103.926L72.5326 103.799ZM64.5611 105.652L63.3877 109.758L62.4014 109.935L59.8526 104.214L61.3154 103.952L62.7388 107.322L63.895 103.49L64.5094 103.379L66.8698 106.583L67.0483 102.924L68.5074 102.662L68.0802 108.915L67.0939 109.092L64.5611 105.652ZM54.6762 110.416L53.1604 110.454L53.0077 104.375L54.5235 104.337L54.5395 104.984C54.8288 104.694 55.1219 104.484 55.4174 104.353C55.7129 104.221 56.0355 104.15 56.384 104.141C57.1683 104.12 57.8529 104.407 58.4403 105.001C59.0276 105.594 59.3305 106.342 59.3539 107.244C59.3773 108.182 59.1199 108.955 58.5819 109.568C58.0438 110.179 57.3801 110.496 56.5896 110.516C56.2251 110.526 55.8828 110.465 55.5602 110.338C55.2376 110.212 54.9384 110.012 54.6602 109.748L54.6762 110.416ZM56.2436 109.128C56.714 109.116 57.1018 108.94 57.4035 108.597C57.7064 108.258 57.8505 107.827 57.8382 107.306C57.8246 106.781 57.6559 106.353 57.3309 106.022C57.0046 105.693 56.6105 105.533 56.1476 105.544C55.6698 105.557 55.277 105.732 54.9717 106.075C54.6651 106.414 54.5186 106.856 54.5321 107.396C54.5456 107.924 54.7143 108.347 55.0369 108.668C55.3595 108.986 55.7622 109.139 56.2436 109.128Z" fill="#BA9872"/>
<path fill-rule="evenodd" clip-rule="evenodd" d="M68.1085 37.9263C68.4311 37.4365 68.6195 37.0814 68.239 36.7029C67.8499 36.3145 67.4177 36.4407 67.1579 36.8798C68.1171 36.6064 67.4669 38.3531 66.642 37.2546C66.3206 36.8266 66.1507 35.9669 66.3834 35.4028C65.7505 34.9896 65.6816 34.4985 65.109 33.9616C63.9873 32.9151 62.7006 32.8557 61.7266 33.9938C60.8622 35.002 60.5445 35.4547 59.8513 35.4671C60.3057 35.91 60.9521 35.8654 61.3892 35.8246C61.9753 36.5705 62.2339 37.0282 63.3372 37.2596C64.2656 37.455 64.7051 37.3165 65.6963 37.9659C65.7653 37.7136 65.5153 37.1767 65.3035 36.8847C64.9354 36.3788 64.6805 36.3553 64.1843 36.2353C64.4872 35.5958 64.3074 34.8721 63.4972 34.6729C63.5206 34.9376 63.6142 35.2259 63.2226 35.5327C62.4346 36.1499 61.2833 34.6927 62.687 33.8491C63.7866 33.1885 65.4747 34.4923 65.0979 35.8308C66.2221 36.5903 65.6335 37.2942 66.3625 38.1193C66.9781 38.8133 68.2008 38.7539 69.1243 39.5172C69.1908 39.2648 69.0726 38.7923 68.9642 38.5745C68.7623 38.17 68.537 38.0575 68.1085 37.9263Z" fill="#BA9872"/>
<path fill-rule="evenodd" clip-rule="evenodd" d="M43.6782 37.9263C43.3568 37.4365 43.1684 37.0814 43.5476 36.7029C43.938 36.3145 44.3689 36.4407 44.6287 36.8798C43.6695 36.6064 44.3197 38.3531 45.1446 37.2546C45.466 36.8266 45.6372 35.9669 45.4032 35.4028C46.0361 34.9896 46.1051 34.4985 46.6789 33.9616C47.8006 32.9151 49.0861 32.8557 50.0613 33.9938C50.9244 35.002 51.2421 35.4547 51.9353 35.4671C51.4809 35.91 50.8345 35.8654 50.3974 35.8246C49.8125 36.5705 49.5527 37.0282 48.4495 37.2596C47.5223 37.455 47.0827 37.3165 46.0915 37.9659C46.0213 37.7136 46.2713 37.1767 46.4831 36.8847C46.8525 36.3788 47.1073 36.3553 47.6023 36.2353C47.2994 35.5958 47.4792 34.8721 48.2906 34.6729C48.266 34.9376 48.1724 35.2259 48.564 35.5327C49.3533 36.1499 50.5033 34.6927 49.0996 33.8491C48 33.1885 46.3132 34.4923 46.6887 35.8308C45.5645 36.5903 46.1531 37.2942 45.4242 38.1193C44.8085 38.8133 43.5858 38.7539 42.6636 39.5172C42.5958 39.2648 42.7153 38.7923 42.8236 38.5745C43.0243 38.17 43.2509 38.0575 43.6782 37.9263Z" fill="#BA9872"/>
<path fill-rule="evenodd" clip-rule="evenodd" d="M59.7898 44.5951L59.7947 43.3011L57.0452 40.6798L57.7101 34.3239L60.0139 35.1429C60.4916 34.9969 60.8339 34.5441 61.537 33.7215C62.1071 33.0572 62.7818 32.8011 63.4689 32.9112L58.2322 29.0257C58.5264 21.4018 55.9001 19.9248 55.9001 19.9248C55.9001 19.9248 53.3833 21.4662 53.6061 29.0863L48.6243 32.8865C49.2042 32.8865 49.7657 33.1562 50.2496 33.7215C51.0278 34.6295 51.3627 35.0872 51.9279 35.1787L54.0974 34.3536L54.7082 40.6972L51.934 43.3951L51.9242 44.6829C55.5688 44.2141 56.0934 44.2574 59.7898 44.5951Z" fill="#0C97CD"/>
<path fill-rule="evenodd" clip-rule="evenodd" d="M76.293 23.2178V27.3421V33.7227C76.293 45.0057 67.1038 54.239 55.8718 54.239C55.0887 54.239 54.3167 54.1932 53.5557 54.1054C51.444 54.0349 51.5056 54.0695 49.3742 54.8204C46.6801 55.7692 43.6314 56.572 41.0863 57.6421C38.7283 58.6329 37.0587 61.2518 38.6347 64.7872C40.3746 68.3239 43.8099 67.4976 46.2602 66.6873L62.7659 61.2097C74.9226 57.1485 79.5166 70.203 73.4622 76.2793C71.454 78.2957 62.5024 81.4897 58.6619 82.5758C58.6866 82.8455 58.7001 83.1189 58.7001 83.3948C58.7001 88.1895 54.8313 92.0763 50.06 92.0763C45.2875 92.0763 41.4187 88.1895 41.4187 83.3948C41.4187 78.6 45.2875 74.7132 50.06 74.7132C53.0201 74.7132 55.6317 76.2088 57.1893 78.4887C60.3981 77.5275 69.5442 74.1937 70.6007 73.1768C72.6065 71.6107 72.3282 67.9652 70.5403 66.1665C68.4065 64.0203 65.9821 64.6672 63.0922 65.6334C58.1509 67.2823 53.1863 68.8929 48.2894 70.5592C40.4534 73.2238 33.052 69.942 33.7698 61.3779C34.3178 54.8402 40.5593 52.8721 45.7308 51.5126C39.5988 47.961 35.4493 41.3058 35.4493 33.7227V27.3421V23.2178H39.5545H43.5144V27.3421H39.5545V33.7091C39.5545 42.7246 46.8968 50.1023 55.8718 50.1023C64.8456 50.1023 72.1891 42.7246 72.1891 33.7091V27.3421H68.228V23.2178H72.1891H76.293ZM50.06 78.8796C52.5423 78.8796 54.5543 80.9009 54.5543 83.3948C54.5543 85.8886 52.5423 87.9099 50.06 87.9099C47.5777 87.9099 45.5658 85.8886 45.5658 83.3948C45.5658 80.9009 47.5777 78.8796 50.06 78.8796Z" fill="white"/>
</svg>
