<svg width="970" height="1265" viewBox="0 0 970 1265" fill="none" xmlns="http://www.w3.org/2000/svg">
<circle cx="669.5" cy="632.5" r="632" stroke="#BA9872"/>
<circle opacity="0.5" cx="669.5" cy="632.5" r="487" stroke="#BA9872"/>
<g opacity="0.5" filter="url(#filter0_f_1_142)">
<circle cx="695.5" cy="644.5" r="367" stroke="#BA9872"/>
</g>
<circle cx="66" cy="797" r="66" fill="#0C97CD"/>
<path d="M83.3938 797.397H81.9369V795.94C81.9369 795.132 81.2878 794.483 80.4799 794.483C79.672 794.483 79.023 795.132 79.023 795.94V797.397H77.5662C76.7582 797.397 76.1092 798.046 76.1092 798.854C76.1092 799.662 76.7582 800.311 77.5662 800.311H79.023V801.767C79.023 802.575 79.672 803.224 80.4799 803.224C81.2878 803.224 81.9369 802.575 81.9369 801.767V800.311H83.3938C84.2017 800.311 84.8507 799.662 84.8507 798.854C84.8507 798.059 84.1884 797.397 83.3938 797.397ZM87.6983 791.662C87.738 791.212 87.7645 790.774 87.7645 790.324C87.7645 783.013 82.4931 777 75.2748 777C71.3809 777 68.0035 778.854 65.5002 782.351C65.0499 782.987 64.6526 783.622 64.3347 784.218C64.0168 783.622 63.6196 782.987 63.1692 782.351C60.666 778.854 57.2886 777 53.3947 777C46.1631 777 40.9049 783.013 40.9049 790.324C40.9049 793.754 42.1102 796.96 44.6797 800.324H42.3619C41.554 800.324 40.9049 800.973 40.9049 801.781C40.9049 802.589 41.554 803.238 42.3619 803.238H47.2094C49.951 806.112 53.5139 809.105 57.527 812.482C59.3945 814.059 61.3149 815.674 63.3679 817.462C63.646 817.701 63.9772 817.82 64.3215 817.82C64.6659 817.82 64.997 817.701 65.2751 817.462C67.3545 815.661 69.3147 814.019 71.2219 812.443C73.01 810.946 74.7185 809.529 76.2681 808.178C77.5529 808.761 78.9701 809.079 80.4535 809.079C86.0825 809.079 90.6651 804.496 90.6651 798.867C90.6783 796.046 89.5393 793.503 87.6983 791.662ZM43.832 790.311C43.832 784.377 47.9511 779.901 53.4079 779.901C56.3349 779.901 58.7985 781.265 60.7587 783.967C62.3083 786.099 62.9308 788.298 62.944 788.311C63.1162 788.947 63.699 789.371 64.348 789.384C64.9969 789.384 65.5797 788.947 65.7519 788.324C65.7519 788.298 66.3877 786.112 67.9373 783.98C69.8842 781.278 72.361 779.914 75.288 779.914C80.5329 779.914 84.5328 784.046 84.8375 789.635C83.513 789.013 82.0428 788.655 80.4799 788.655C75.341 788.655 71.0895 792.47 70.3743 797.397H65.0632C64.3877 797.397 63.805 797.847 63.646 798.496L62.6791 802.39L58.4276 789.649C58.229 789.039 57.6329 788.629 56.9839 788.655C56.335 788.682 55.7787 789.132 55.6198 789.755L52.9841 800.311H48.4809C45.5273 797.013 43.832 793.887 43.832 790.311ZM69.3677 810.191C67.7519 811.542 66.083 812.933 64.3347 814.429C62.6261 812.959 60.9971 811.582 59.4077 810.257C56.3482 807.688 53.633 805.397 51.355 803.238H54.1231C54.7986 803.238 55.3814 802.787 55.5403 802.138L57.2356 795.331L61.4872 808.072C61.6858 808.668 62.2421 809.065 62.8646 809.065C62.8778 809.065 62.9044 809.065 62.9176 809.065C63.5666 809.039 64.1228 808.588 64.2817 807.966L66.189 800.324H70.3611C70.7187 802.774 71.9372 804.959 73.7252 806.522C72.3742 807.688 70.9041 808.906 69.3677 810.191ZM80.4668 806.151C76.4536 806.151 73.1822 802.88 73.1822 798.867C73.1822 794.854 76.4536 791.582 80.4668 791.582C84.4799 791.582 87.7513 794.854 87.7513 798.867C87.7645 802.88 84.4931 806.151 80.4668 806.151Z" fill="white"/>
<g filter="url(#filter1_f_1_142)">
<circle cx="207" cy="488" r="36" fill="#6FD9D2"/>
<path d="M212.159 473.025C211.732 472.913 211.296 473.192 211.191 473.656C211.086 474.128 210.936 474.583 210.749 475.015H203.259C203.071 474.583 202.929 474.128 202.816 473.656C202.711 473.2 202.276 472.913 201.848 473.025C201.42 473.137 201.15 473.6 201.255 474.056C201.428 474.823 201.698 475.558 202.036 476.238C202.043 476.254 202.051 476.27 202.058 476.286C202.816 477.781 203.942 479.044 205.33 479.915C202.651 481.601 201 484.663 201 487.996C201 491.321 202.651 494.391 205.33 496.077C203.942 496.948 202.809 498.211 202.058 499.706C202.051 499.722 202.043 499.738 202.036 499.754C201.69 500.442 201.428 501.177 201.255 501.944C201.15 502.4 201.413 502.863 201.848 502.975C202.276 503.087 202.711 502.808 202.816 502.344C202.921 501.872 203.071 501.417 203.259 500.985H210.749C210.936 501.417 211.079 501.872 211.191 502.344C211.296 502.8 211.732 503.087 212.159 502.975C212.31 502.935 212.437 502.855 212.535 502.752C212.73 502.544 212.82 502.248 212.745 501.944C212.572 501.177 212.302 500.441 211.964 499.762C211.957 499.746 211.949 499.73 211.942 499.714C211.184 498.219 210.058 496.956 208.67 496.085C209.315 495.678 209.901 495.19 210.418 494.638C212.047 492.904 213 490.53 213 488.004C213 484.679 211.349 481.609 208.67 479.923C209.308 479.523 209.893 479.036 210.418 478.484C211.019 477.845 211.529 477.109 211.942 476.31C211.957 476.286 211.964 476.262 211.979 476.238C212.317 475.55 212.587 474.823 212.76 474.056C212.857 473.6 212.595 473.137 212.159 473.025ZM206.373 481.266L207.011 480.898L207.649 481.266C208.475 481.745 209.18 482.377 209.758 483.12H204.265C204.835 482.377 205.548 481.745 206.373 481.266ZM211.349 487.141H202.659C202.741 486.333 202.944 485.558 203.259 484.831H210.749C211.064 485.558 211.266 486.333 211.349 487.141ZM210.756 491.169H203.266C202.959 490.442 202.756 489.667 202.666 488.859H211.356C211.266 489.659 211.064 490.442 210.756 491.169ZM204.265 499.274C204.842 498.523 205.555 497.892 206.373 497.42L207.011 497.052L207.649 497.42C208.467 497.892 209.18 498.531 209.758 499.274H204.265ZM207.642 494.734L207.004 495.102L206.366 494.734C205.54 494.255 204.835 493.623 204.257 492.88H209.75C209.173 493.623 208.467 494.255 207.642 494.734ZM207.642 478.58L207.004 478.948L206.366 478.58C205.548 478.108 204.835 477.469 204.257 476.726H209.743C209.173 477.469 208.46 478.108 207.642 478.58Z" fill="white"/>
</g>
<g filter="url(#filter2_f_1_142)">
<circle cx="427" cy="897" r="29" fill="#BA9872"/>
<path d="M436.992 896.625C436.992 894.891 435.575 893.473 433.841 893.473C432.107 893.473 430.683 894.885 430.683 896.625C430.683 898.185 431.816 899.479 433.308 899.727V903.033C433.308 905.609 431.216 907.701 428.64 907.701C426.064 907.701 423.972 905.609 423.972 903.033L423.959 899.244C425.179 899.083 426.374 898.364 427.439 897.145C427.594 896.965 427.643 896.736 427.618 896.513C429.005 894.674 429.866 892.179 429.866 890.254C429.866 887.288 428.535 886.978 426.337 886.477L426.331 886.471C426.194 886.198 425.922 886 425.594 886C425.129 886 424.752 886.378 424.752 886.836C424.752 887.3 425.129 887.678 425.594 887.678C425.78 887.678 425.953 887.604 426.089 887.492L426.108 887.498C428.244 887.987 428.82 888.124 428.82 890.254C428.82 891.944 428.021 894.21 426.795 895.844C426.591 895.857 426.393 895.944 426.244 896.111C425.619 896.835 424.622 897.702 423.439 897.702C422.263 897.702 421.266 896.848 420.641 896.123C420.492 895.956 420.288 895.869 420.09 895.857C418.864 894.216 418.065 891.95 418.065 890.26C418.065 888.124 418.635 887.994 420.777 887.505L420.783 887.498C420.932 887.61 421.093 887.684 421.285 887.684C421.749 887.684 422.127 887.306 422.127 886.842C422.127 886.384 421.749 886.006 421.285 886.006C420.95 886.006 420.678 886.204 420.535 886.477C418.337 886.984 417 887.288 417 890.26C417 892.185 417.867 894.693 419.266 896.532C419.241 896.755 419.285 896.984 419.446 897.163C420.504 898.377 421.693 899.089 422.913 899.25V903.039C422.913 906.197 425.489 908.76 428.64 908.76C431.798 908.76 434.355 906.191 434.355 903.039V899.733C435.847 899.473 436.992 898.185 436.992 896.625ZM433.835 898.73C432.677 898.73 431.73 897.789 431.73 896.625C431.73 895.467 432.677 894.526 433.835 894.526C434.993 894.526 435.934 895.467 435.934 896.625C435.934 897.782 434.993 898.73 433.835 898.73Z" fill="white"/>
<path d="M433.835 895.052C432.968 895.052 432.256 895.758 432.256 896.625C432.256 897.498 432.962 898.203 433.835 898.203C434.702 898.203 435.414 897.504 435.414 896.625C435.414 895.752 434.708 895.052 433.835 895.052Z" fill="white"/>
</g>
<defs>
<filter id="filter0_f_1_142" x="325" y="274" width="741" height="741" filterUnits="userSpaceOnUse" color-interpolation-filters="sRGB">
<feFlood flood-opacity="0" result="BackgroundImageFix"/>
<feBlend mode="normal" in="SourceGraphic" in2="BackgroundImageFix" result="shape"/>
<feGaussianBlur stdDeviation="1.5" result="effect1_foregroundBlur_1_142"/>
</filter>
<filter id="filter1_f_1_142" x="169" y="450" width="76" height="76" filterUnits="userSpaceOnUse" color-interpolation-filters="sRGB">
<feFlood flood-opacity="0" result="BackgroundImageFix"/>
<feBlend mode="normal" in="SourceGraphic" in2="BackgroundImageFix" result="shape"/>
<feGaussianBlur stdDeviation="1" result="effect1_foregroundBlur_1_142"/>
</filter>
<filter id="filter2_f_1_142" x="394" y="864" width="66" height="66" filterUnits="userSpaceOnUse" color-interpolation-filters="sRGB">
<feFlood flood-opacity="0" result="BackgroundImageFix"/>
<feBlend mode="normal" in="SourceGraphic" in2="BackgroundImageFix" result="shape"/>
<feGaussianBlur stdDeviation="2" result="effect1_foregroundBlur_1_142"/>
</filter>
</defs>
</svg>
